Coordinates
version=1
nRows=20
nColumns=23
inDegrees=yes

Units are S.I. units (second, meters, Newtons, ...)
If the header above contains a line with 'inDegrees', this indicates whether rotational values are in degrees (yes) or radians (no).

endheader
time	pelvis_tilt	pelvis_list	pelvis_rotation	pelvis_tx	pelvis_ty	pelvis_tz	hip_flexion_r	hip_adduction_r	hip_rotation_r	knee_angle_r	knee_angle_r_beta	ankle_angle_r	subtalar_angle_r	mtp_angle_r	hip_flexion_l	hip_adduction_l	hip_rotation_l	knee_angle_l	knee_angle_l_beta	ankle_angle_l	subtalar_angle_l	mtp_angle_l
      0.00000000	     -7.40943609	     -6.92817498	     -2.82252672	      2.22974751	      1.05309449	      1.02248969	     43.04633423	      8.75518219	     -4.07270498	     23.48457151	      0.40988310	      3.96013808	      4.22728481	      0.00000000	    -17.08480753	     -6.68573386	     -7.93286937	     33.89278283	      0.59154065	    -21.46496447	     -6.21421429	      0.00000000
      0.00666667	     -6.81739673	     -6.85539396	     -2.34281868	      2.23056694	      1.05197743	      1.02197163	     42.18036831	      8.36265156	     -4.41897403	     23.50089992	      0.41016808	      3.82770688	      4.43480516	      0.00000000	    -16.62238386	     -6.54050771	     -6.29782096	     37.37490242	      0.65231510	    -20.63491331	     -7.61028815	      0.00000000
      0.01333333	     -6.26237576	     -6.77300585	     -1.92148344	      2.23132208	      1.05059063	      1.02145299	     41.37251206	      8.00347510	     -4.70134290	     23.62883576	      0.41240098	      3.86068005	      4.59091668	      0.00000000	    -16.19061311	     -6.32574567	     -4.82462899	     40.74418959	      0.71112026	    -19.76645937	     -8.82927866	      0.00000000
      0.02000000	     -5.77997540	     -6.69731416	     -1.49948061	      2.23206250	      1.04882302	      1.02088488	     40.66973979	      7.62787073	     -5.05713900	     23.96686844	      0.41830077	      3.90371866	      4.69356923	      0.00000000	    -15.70473093	     -6.05001614	     -3.35141086	     44.04157972	      0.76867057	    -19.02858563	     -9.96637754	      0.00000000
      0.02666667	     -5.27375155	     -6.61702449	     -1.16270426	      2.23281725	      1.04677852	      1.02039676	     39.94077862	      7.28858161	     -5.39300571	     24.52494607	      0.42804106	      4.01543864	      4.71465843	      0.00000000	    -15.26207063	     -5.74249414	     -2.12148132	     47.28244399	      0.82523433	    -18.37219168	    -10.94454097	      0.00000000
      0.03333333	     -4.83159496	     -6.50025670	     -0.85079872	      2.23360033	      1.04421885	      1.01987923	     39.30246563	      6.87686415	     -5.82501933	     25.39180594	      0.44317062	      4.26248120	      4.79756266	      0.00000000	    -14.71906047	     -5.37477918	     -1.00093583	     50.54010521	      0.88209124	    -17.68068268	    -11.87707884	      0.00000000
      0.04000000	     -4.23906899	     -6.49950080	     -0.59016030	      2.23445516	      1.04150515	      1.01945444	     38.40633209	      6.64462328	     -6.13777129	     26.32432171	      0.45944609	      4.44116079	      4.38987010	      0.00000000	    -14.32237037	     -5.17272019	     -0.20287450	     53.77772522	      0.93859837	    -16.93605485	    -12.50691055	      0.00000000
      0.04666667	     -3.56022151	     -6.53976006	     -0.43314651	      2.23537852	      1.03843742	      1.01915575	     37.37991879	      6.52820721	     -6.31057993	     27.44547895	      0.47901397	      4.68790157	      3.86112938	      0.00000000	    -14.01842740	     -5.00741294	      0.35637367	     56.97282215	      0.99436333	    -16.19002070	    -13.10953900	      0.00000000
      0.05333333	     -2.94911516	     -6.55314871	     -0.30386853	      2.23631421	      1.03486350	      1.01889082	     36.37903502	      6.39656022	     -6.44868916	     28.70780939	      0.50104579	      4.88988523	      3.21688485	      0.00000000	    -13.57678801	     -4.85463495	      0.76784176	     60.18749107	      1.05046989	    -15.43690535	    -13.61981487	      0.00000000
      0.06000000	     -2.42352216	     -6.55354667	     -0.23383827	      2.23720261	      1.03075735	      1.01869650	     35.44529169	      6.30178852	     -6.44995162	     30.11664123	      0.52563455	      5.07222806	      2.40814028	      0.00000000	    -12.97767829	     -4.71045670	      1.03912282	     63.43118198	      1.10708297	    -14.62830984	    -14.03954737	      0.00000000
      0.06666667	     -1.74095051	     -6.63151030	     -0.25464771	      2.23813874	      1.02648399	      1.01863945	     34.28395771	      6.34995644	     -6.37974341	     31.58725948	      0.55130168	      5.33859256	      1.65882579	      0.00000000	    -12.55112608	     -4.68789736	      1.06411729	     66.58127945	      1.16206255	    -13.87117358	    -14.60374678	      0.00000000
      0.07333333	     -1.12582616	     -6.74373868	     -0.32265749	      2.23895690	      1.02175806	      1.01866803	     33.21138662	      6.47266542	     -6.23324075	     33.21149256	      0.57964989	      5.64680243	      0.85566873	      0.00000000	    -11.99417870	     -4.73416232	      0.98683903	     69.72023420	      1.21684764	    -13.10610319	    -15.15632646	      0.00000000
      0.08000000	     -1.09989469	     -6.73788029	     -0.46860464	      2.23931060	      1.01601967	      1.01892330	     32.79789096	      6.70433434	     -5.43324524	     34.90409377	      0.60919136	      6.05131541	     -0.73653616	      0.00000000	    -10.60990839	     -4.71240870	      0.88687390	     73.06191235	      1.27517093	    -12.15590041	    -15.31850336	      0.00000000
      0.08666667	     -0.87813817	     -6.88263193	     -0.67109307	      2.23959407	      1.01032681	      1.01926494	     32.20512413	      7.08604088	     -4.84098041	     36.76113660	      0.64160287	      6.77967791	     -1.95377371	      0.00000000	     -9.43842949	     -4.93272283	      0.58481541	     76.27327236	      1.33121973	    -11.35430252	    -15.77088056	      0.00000000
      0.09333333	     -0.46195014	     -7.17222981	     -0.86381929	      2.23970434	      1.00476387	      1.01956056	     31.43983314	      7.60331674	     -4.42376723	     38.74849013	      0.67628873	      7.87357854	     -2.80388502	      0.00000000	     -8.44805195	     -5.33949401	      0.25636819	     79.37869071	      1.38541951	    -10.66277981	    -16.40453677	      0.00000000
      0.10000000	     -0.83601087	     -7.31099579	     -1.26776945	      2.23919171	      0.99809406	      1.02032221	     31.64998420	      8.24115482	     -3.46325178	     40.96408709	      0.71495819	      9.05288692	     -4.41602896	      0.00000000	     -6.40196017	     -5.72547490	     -0.23032775	     82.67560955	      1.44296160	     -9.83284904	    -16.64029973	      0.00000000
      0.10666667	     -1.04220133	     -7.63939336	     -1.64923974	      2.23853953	      0.99171352	      1.02102503	     31.69342615	      8.99707882	     -2.87766606	     43.26144830	      0.75505471	     10.63895121	     -5.35776346	      0.00000000	     -4.50683618	     -6.39002867	     -0.71169755	     85.83659418	      1.49813119	     -9.19041153	    -17.07621462	      0.00000000
      0.11333333	     -1.36257376	     -8.00640973	     -2.04816590	      2.23757073	      0.98534684	      1.02177427	     31.86507718	      9.83814253	     -2.30826646	     45.58459801	      0.79560132	     12.40375575	     -6.26868809	      0.00000000	     -2.38640428	     -7.14961913	     -1.12945563	     88.95359325	      1.55253308	     -8.58393852	    -17.47220981	      0.00000000
      0.12000000	     -1.76321599	     -8.42777249	     -2.48967821	      2.23632172	      0.97914527	      1.02260720	     32.07212416	     10.74572100	     -1.80949960	     47.83887695	      0.83494591	     14.23524689	     -6.99482059	      0.00000000	     -0.09250475	     -8.00867966	     -1.47716641	     91.97932572	      1.60534208	     -8.08130072	    -17.83287117	      0.00000000
      0.12666667	     -1.89545807	     -8.94070885	     -2.85770595	      2.23495240	      0.97373585	      1.02332720	     31.85820143	     11.70364124	     -1.38910200	     49.89574327	      0.87084500	     16.33671520	     -7.52905033	      0.00000000	      1.96798308	     -9.00438643	     -1.70908599	     94.79447129	      1.65447564	     -7.67623363	    -18.35135365	      0.00000000
